<?xml version="1.0" encoding="utf-8"?>
<svg version="1.1" xmlns:xlink="http://www.w3.org/1999/xlink" width="24px" height="19px" xmlns="http://www.w3.org/2000/svg">
  <g transform="matrix(1 0 0 1 -36 -155 )">
    <path d="M 11.89453125 10.953450520833332  C 11.96484375 11.394639756944445  12 11.879123263888888  12 12.406901041666668  C 12 12.934678819444445  11.85546875 13.373806423611107  11.56640625 13.724283854166668  C 11.27734375 14.07476128472222  10.921875 14.25  10.5 14.25  L 4.5 14.25  C 4.078125 14.25  3.72265625 14.07476128472222  3.43359375 13.724283854166668  C 3.1445312500000004 13.373806423611107  3 12.934678819444445  3 12.406901041666668  C 3 11.879123263888888  3.03515625 11.394639756944445  3.10546875 10.953450520833332  C 3.17578125 10.51226128472222  3.2910156250000004 10.087565104166668  3.451171875 9.679361979166668  C 3.611328125 9.271158854166666  3.8476562500000004 8.949544270833334  4.16015625 8.714518229166666  C 4.47265625 8.4794921875  4.8515625 8.361979166666666  5.296875 8.361979166666666  C 5.34375 8.394965277777779  5.4609375 8.469184027777779  5.6484375 8.584635416666666  C 5.8359375 8.700086805555554  5.982421875 8.788736979166666  6.087890625 8.8505859375  C 6.193359375 8.912434895833334  6.33203125 8.984592013888888  6.50390625 9.067057291666666  C 6.675781250000001 9.149522569444445  6.84375 9.209309895833334  7.0078125 9.246419270833334  C 7.171875 9.283528645833334  7.3359375 9.302083333333334  7.5 9.302083333333334  C 7.6640625 9.302083333333334  7.828125 9.283528645833334  7.9921875 9.246419270833334  C 8.15625 9.209309895833334  8.32421875 9.149522569444445  8.49609375 9.067057291666666  C 8.66796875 8.984592013888888  8.806640625 8.912434895833334  8.912109375 8.8505859375  C 9.017578125000002 8.788736979166666  9.164062500000002 8.700086805555554  9.3515625 8.584635416666666  C 9.539062500000002 8.469184027777779  9.656250000000002 8.394965277777779  9.703125 8.361979166666666  C 10.148437500000002 8.361979166666666  10.527343750000002 8.4794921875  10.83984375 8.714518229166666  C 11.15234375 8.949544270833334  11.388671875 9.271158854166666  11.548828125 9.679361979166668  C 11.708984375 10.087565104166668  11.82421875 10.51226128472222  11.89453125 10.953450520833332  Z M 9.380859375 3.9892578125  C 9.900390625000002 4.537651909722222  10.160156250000002 5.1994357638888875  10.16015625 5.974609375  C 10.160156250000002 6.74978298611111  9.900390625000002 7.411566840277776  9.380859375 7.9599609375  C 8.861328125 8.508355034722221  8.234375 8.782552083333334  7.5 8.782552083333334  C 6.765625 8.782552083333334  6.138671875 8.508355034722221  5.619140625 7.9599609375  C 5.099609375 7.411566840277776  4.83984375 6.74978298611111  4.83984375 5.974609375  C 4.83984375 5.1994357638888875  5.099609375 4.537651909722222  5.619140625 3.9892578125  C 6.138671875 3.440863715277776  6.765625 3.166666666666666  7.5 3.166666666666666  C 8.234375 3.166666666666666  8.861328125 3.440863715277776  9.380859375 3.9892578125  Z M 20.89453125 11.194661458333332  C 20.96484375 11.268880208333332  21 11.363715277777775  21 11.479166666666668  L 21 12.270833333333332  C 21 12.38628472222222  20.96484375 12.481119791666668  20.89453125 12.555338541666668  C 20.82421875 12.629557291666668  20.734375 12.666666666666668  20.625 12.666666666666668  L 13.875 12.666666666666668  C 13.765625 12.666666666666668  13.67578125 12.629557291666668  13.60546875 12.555338541666668  C 13.53515625 12.481119791666668  13.5 12.38628472222222  13.5 12.270833333333332  L 13.5 11.479166666666668  C 13.5 11.363715277777775  13.53515625 11.268880208333332  13.60546875 11.194661458333332  C 13.67578125 11.120442708333332  13.765625 11.083333333333332  13.875 11.083333333333332  L 20.625 11.083333333333332  C 20.734375 11.083333333333332  20.82421875 11.120442708333332  20.89453125 11.194661458333332  Z M 20.876953125 8.046549479166666  C 20.958984375 8.133138020833334  21 8.23828125  21 8.361979166666666  L 21 9.0546875  C 21 9.178385416666666  20.958984375 9.283528645833334  20.876953125 9.3701171875  C 20.794921875 9.456705729166666  20.6953125 9.5  20.578125 9.5  L 13.921875 9.5  C 13.8046875 9.5  13.705078125 9.456705729166666  13.623046875 9.3701171875  C 13.541015625 9.283528645833334  13.5 9.178385416666666  13.5 9.0546875  L 13.5 8.361979166666666  C 13.5 8.23828125  13.541015625 8.133138020833334  13.623046875 8.046549479166666  C 13.705078125 7.9599609375  13.8046875 7.916666666666666  13.921875 7.916666666666666  L 20.578125 7.916666666666666  C 20.6953125 7.916666666666666  20.794921875 7.9599609375  20.876953125 8.046549479166666  Z M 20.89453125 4.861328125  C 20.96484375 4.935546875  21 5.030381944444442  21 5.145833333333334  L 21 5.9375  C 21 6.0529513888888875  20.96484375 6.147786458333334  20.89453125 6.222005208333334  C 20.82421875 6.296223958333334  20.734375 6.333333333333334  20.625 6.333333333333334  L 13.875 6.333333333333334  C 13.765625 6.333333333333334  13.67578125 6.296223958333334  13.60546875 6.222005208333334  C 13.53515625 6.147786458333334  13.5 6.0529513888888875  13.5 5.9375  L 13.5 5.145833333333334  C 13.5 5.030381944444442  13.53515625 4.935546875  13.60546875 4.861328125  C 13.67578125 4.787109375  13.765625 4.75  13.875 4.75  L 20.625 4.75  C 20.734375 4.75  20.82421875 4.787109375  20.89453125 4.861328125  Z M 22.388671875 17.299153645833336  C 22.462890625 17.220811631944446  22.500000000000004 17.128038194444446  22.5 17.020833333333336  L 22.5 1.979166666666666  C 22.500000000000004 1.871961805555554  22.462890625 1.779188368055554  22.388671875 1.700846354166666  C 22.314453125 1.622504340277776  22.2265625 1.583333333333334  22.125 1.583333333333334  L 1.875 1.583333333333334  C 1.7734375 1.583333333333334  1.685546875 1.622504340277776  1.611328125 1.700846354166666  C 1.5371093750000002 1.779188368055554  1.5 1.871961805555554  1.5 1.979166666666666  L 1.5 17.020833333333336  C 1.5 17.128038194444446  1.5371093750000002 17.220811631944446  1.611328125 17.299153645833336  C 1.685546875 17.37749565972222  1.7734375 17.416666666666664  1.875 17.416666666666664  L 6 17.416666666666664  L 6 16.229166666666664  C 6 16.11371527777778  6.03515625 16.018880208333336  6.10546875 15.944661458333334  C 6.17578125 15.870442708333334  6.265625000000001 15.833333333333334  6.375 15.833333333333334  L 7.125 15.833333333333334  C 7.234375 15.833333333333334  7.32421875 15.870442708333334  7.39453125 15.944661458333334  C 7.46484375 16.018880208333336  7.5 16.11371527777778  7.5 16.229166666666664  L 7.5 17.416666666666664  L 16.5 17.416666666666664  L 16.5 16.229166666666664  C 16.5 16.11371527777778  16.53515625 16.018880208333336  16.60546875 15.944661458333334  C 16.67578125 15.870442708333334  16.765625 15.833333333333334  16.875 15.833333333333334  L 17.625 15.833333333333334  C 17.734375 15.833333333333334  17.82421875 15.870442708333334  17.89453125 15.944661458333334  C 17.96484375 16.018880208333336  18 16.11371527777778  18 16.229166666666664  L 18 17.416666666666664  L 22.125 17.416666666666664  C 22.2265625 17.416666666666664  22.314453125 17.37749565972222  22.388671875 17.299153645833336  Z M 23.44921875 0.581380208333334  C 23.81640625 0.968967013888888  24 1.434895833333334  24 1.979166666666666  L 24 17.020833333333336  C 24 17.565104166666664  23.81640625 18.03103298611111  23.44921875 18.418619791666664  C 23.08203125 18.80620659722222  22.640625 19  22.125 19  L 1.875 19  C 1.359375 19  0.9179687500000001 18.80620659722222  0.55078125 18.418619791666664  C 0.18359375 18.03103298611111  0 17.565104166666664  0 17.020833333333336  L 0 1.979166666666666  C 0 1.434895833333334  0.18359375 0.968967013888888  0.55078125 0.581380208333334  C 0.9179687500000001 0.1937934027777759  1.359375 0  1.875 0  L 22.125 0  C 22.640625 0  23.08203125 0.1937934027777759  23.44921875 0.581380208333334  Z " fill-rule="nonzero" fill="#ffffff" stroke="none" transform="matrix(1 0 0 1 36 155 )" />
  </g>
</svg>