<?xml version="1.0" encoding="utf-8"?>
<svg version="1.1" xmlns:xlink="http://www.w3.org/1999/xlink" width="24px" height="22px" xmlns="http://www.w3.org/2000/svg">
  <g transform="matrix(1 0 0 1 -36 -108 )">
    <path d="M 11 1.6923076923076912  L 11 11.766826923076922  L 18.25 18.98557692307692  C 17.26851851851852 19.9375  16.122685185185187 20.677884615384617  14.8125 21.20673076923077  C 13.502314814814817 21.735576923076923  12.12037037037037 22  10.666666666666666 22  C 8.731481481481483 22  6.9467592592592595 21.54607371794872  5.3125 20.638221153846153  C 3.6782407407407414 19.73036858974359  2.3842592592592595 18.49859775641026  1.4305555555555556 16.942908653846153  C 0.4768518518518518 15.387219551282051  0 13.688301282051281  0 11.846153846153845  C 0 10.004006410256407  0.4768518518518518 8.305088141025639  1.4305555555555556 6.749399038461539  C 2.3842592592592595 5.193709935897435  3.6782407407407414 3.9619391025641013  5.3125 3.054086538461539  C 6.9467592592592595 2.1462339743589722  8.731481481481483 1.6923076923076912  11 1.6923076923076912  Z M 20.833333333333336 19.064903846153847  L 13.26388888888889 11.846153846153845  L 24 11.846153846153845  C 24.000000000000007 13.229967948717949  23.722222222222225 14.545472756410254  23.166666666666668 15.79266826923077  C 22.611111111111114 17.03986378205128  21.833333333333336 18.13060897435897  20.833333333333336 19.064903846153847  Z M 21.680555555555557 5.057091346153846  C 22.63425925925926 6.612780448717947  23.11111111111111 8.311698717948717  23.11111111111111 10.153846153846155  L 12 10.153846153846155  L 12 0  C 14.379629629629632 0  16.164351851851855 0.4539262820512835  17.79861111111111 1.3617788461538456  C 19.43287037037037 2.269631410256408  20.726851851851855 3.501402243589742  21.680555555555557 5.057091346153846  Z " fill-rule="nonzero" fill="#ffffff" stroke="none" transform="matrix(1 0 0 1 36 108 )" />
  </g>
</svg>