<?xml version="1.0" encoding="utf-8"?>
<svg version="1.1" xmlns:xlink="http://www.w3.org/1999/xlink" width="24px" height="22px" xmlns="http://www.w3.org/2000/svg">
  <g transform="matrix(1 0 0 1 -36 -196 )">
    <path d="M 3.3013392857142856 18.1484375  C 3.3861607142857144 18.247395833333332  3.4285714285714284 18.364583333333332  3.4285714285714284 18.5  L 3.4285714285714284 21.5  C 3.4285714285714284 21.635416666666668  3.3861607142857144 21.752604166666668  3.3013392857142856 21.8515625  C 3.216517857142857 21.950520833333332  3.116071428571429 22  3 22  L 0.42857142857142855 22  C 0.3125 22  0.21205357142857142 21.950520833333332  0.12723214285714285 21.8515625  C 0.04241071428571429 21.752604166666668  0 21.635416666666668  0 21.5  L 0 18.5  C 0 18.364583333333332  0.04241071428571429 18.247395833333332  0.12723214285714285 18.1484375  C 0.21205357142857142 18.049479166666668  0.3125 18  0.42857142857142855 18  L 3 18  C 3.116071428571429 18  3.216517857142857 18.049479166666668  3.3013392857142856 18.1484375  Z M 3.3013392857142856 12.1484375  C 3.3861607142857144 12.247395833333332  3.4285714285714284 12.364583333333332  3.4285714285714284 12.499999999999998  L 3.4285714285714284 15.5  C 3.4285714285714284 15.635416666666664  3.3861607142857144 15.752604166666663  3.3013392857142856 15.851562499999998  C 3.216517857142857 15.950520833333336  3.116071428571429 16  3 16  L 0.42857142857142855 16  C 0.3125 16  0.21205357142857142 15.950520833333336  0.12723214285714285 15.851562499999998  C 0.04241071428571429 15.752604166666663  0 15.635416666666664  0 15.5  L 0 12.499999999999998  C 0 12.364583333333332  0.04241071428571429 12.247395833333332  0.12723214285714285 12.1484375  C 0.21205357142857142 12.049479166666664  0.3125 12  0.42857142857142855 12  L 3 12  C 3.116071428571429 12  3.216517857142857 12.049479166666664  3.3013392857142856 12.1484375  Z M 3.3013392857142856 6.148437499999999  C 3.3861607142857144 6.247395833333332  3.4285714285714284 6.364583333333331  3.4285714285714284 6.499999999999999  L 3.4285714285714284 9.499999999999998  C 3.4285714285714284 9.635416666666668  3.3861607142857144 9.752604166666666  3.3013392857142856 9.8515625  C 3.216517857142857 9.950520833333332  3.116071428571429 10  3 10  L 0.42857142857142855 10  C 0.3125 10  0.21205357142857142 9.950520833333332  0.12723214285714285 9.8515625  C 0.04241071428571429 9.752604166666666  0 9.635416666666668  0 9.499999999999998  L 0 6.499999999999999  C 0 6.364583333333331  0.04241071428571429 6.247395833333332  0.12723214285714285 6.148437499999999  C 0.21205357142857142 6.049479166666665  0.3125 6  0.42857142857142855 6  L 3 6  C 3.116071428571429 6  3.216517857142857 6.049479166666665  3.3013392857142856 6.148437499999999  Z M 23.872767857142858 18.1484375  C 23.95758928571429 18.247395833333332  24 18.364583333333332  24 18.5  L 24 21.5  C 24 21.635416666666668  23.95758928571429 21.752604166666668  23.872767857142858 21.8515625  C 23.78794642857143 21.950520833333332  23.687500000000004 22  23.57142857142857 22  L 5.571428571428571 22  C 5.455357142857143 22  5.354910714285715 21.950520833333332  5.270089285714286 21.8515625  C 5.185267857142857 21.752604166666668  5.142857142857142 21.635416666666668  5.142857142857142 21.5  L 5.142857142857142 18.5  C 5.142857142857142 18.364583333333332  5.185267857142857 18.247395833333332  5.270089285714286 18.1484375  C 5.354910714285715 18.049479166666668  5.455357142857143 18  5.571428571428571 18  L 23.57142857142857 18  C 23.687500000000004 18  23.78794642857143 18.049479166666668  23.872767857142858 18.1484375  Z M 3.3013392857142856 0.14843749999999933  C 3.3861607142857144 0.24739583333333304  3.4285714285714284 0.3645833333333315  3.4285714285714284 0.49999999999999956  L 3.4285714285714284 3.499999999999999  C 3.4285714285714284 3.635416666666665  3.3861607142857144 3.7526041666666634  3.3013392857142856 3.8515624999999996  C 3.216517857142857 3.950520833333333  3.116071428571429 3.999999999999999  3 3.999999999999999  L 0.42857142857142855 3.999999999999999  C 0.3125 3.999999999999999  0.21205357142857142 3.950520833333333  0.12723214285714285 3.8515624999999996  C 0.04241071428571429 3.7526041666666634  0 3.635416666666665  0 3.499999999999999  L 0 0.49999999999999956  C 0 0.3645833333333315  0.04241071428571429 0.24739583333333304  0.12723214285714285 0.14843749999999933  C 0.21205357142857142 0.04947916666666319  0.3125 0  0.42857142857142855 0  L 3 0  C 3.116071428571429 0  3.216517857142857 0.04947916666666319  3.3013392857142856 0.14843749999999933  Z M 23.872767857142858 12.1484375  C 23.95758928571429 12.247395833333332  24 12.364583333333332  24 12.499999999999998  L 24 15.5  C 24 15.635416666666664  23.95758928571429 15.752604166666663  23.872767857142858 15.851562499999998  C 23.78794642857143 15.950520833333336  23.687500000000004 16  23.57142857142857 16  L 5.571428571428571 16  C 5.455357142857143 16  5.354910714285715 15.950520833333336  5.270089285714286 15.851562499999998  C 5.185267857142857 15.752604166666663  5.142857142857142 15.635416666666664  5.142857142857142 15.5  L 5.142857142857142 12.499999999999998  C 5.142857142857142 12.364583333333332  5.185267857142857 12.247395833333332  5.270089285714286 12.1484375  C 5.354910714285715 12.049479166666664  5.455357142857143 12  5.571428571428571 12  L 23.57142857142857 12  C 23.687500000000004 12  23.78794642857143 12.049479166666664  23.872767857142858 12.1484375  Z M 23.872767857142858 6.148437499999999  C 23.95758928571429 6.247395833333332  24 6.364583333333331  24 6.499999999999999  L 24 9.499999999999998  C 24 9.635416666666668  23.95758928571429 9.752604166666666  23.872767857142858 9.8515625  C 23.78794642857143 9.950520833333332  23.687500000000004 10  23.57142857142857 10  L 5.571428571428571 10  C 5.455357142857143 10  5.354910714285715 9.950520833333332  5.270089285714286 9.8515625  C 5.185267857142857 9.752604166666666  5.142857142857142 9.635416666666668  5.142857142857142 9.499999999999998  L 5.142857142857142 6.499999999999999  C 5.142857142857142 6.364583333333331  5.185267857142857 6.247395833333332  5.270089285714286 6.148437499999999  C 5.354910714285715 6.049479166666665  5.455357142857143 6  5.571428571428571 6  L 23.57142857142857 6  C 23.687500000000004 6  23.78794642857143 6.049479166666665  23.872767857142858 6.148437499999999  Z M 23.872767857142858 0.14843749999999933  C 23.95758928571429 0.24739583333333304  24 0.3645833333333315  24 0.49999999999999956  L 24 3.499999999999999  C 24 3.635416666666665  23.95758928571429 3.7526041666666634  23.872767857142858 3.8515624999999996  C 23.78794642857143 3.950520833333333  23.687500000000004 3.999999999999999  23.57142857142857 4  L 5.571428571428571 4  C 5.455357142857143 3.999999999999999  5.354910714285715 3.950520833333333  5.270089285714286 3.8515624999999996  C 5.185267857142857 3.7526041666666634  5.142857142857142 3.635416666666665  5.142857142857142 3.499999999999999  L 5.142857142857142 0.49999999999999956  C 5.142857142857142 0.3645833333333315  5.185267857142857 0.24739583333333304  5.270089285714286 0.14843749999999933  C 5.354910714285715 0.04947916666666319  5.455357142857143 0  5.571428571428571 0  L 23.57142857142857 0  C 23.687500000000004 0  23.78794642857143 0.04947916666666319  23.872767857142858 0.14843749999999933  Z " fill-rule="nonzero" fill="#ffffff" stroke="none" transform="matrix(1 0 0 1 36 196 )" />
  </g>
</svg>