<?xml version="1.0" encoding="utf-8"?>
<svg version="1.1" xmlns:xlink="http://www.w3.org/1999/xlink" width="24px" height="23px" xmlns="http://www.w3.org/2000/svg">
  <g transform="matrix(1 0 0 1 -36 -243 )">
    <path d="M 15.859375 19.031901041666668  C 15.953125 18.942057291666668  16 18.827256944444443  16 18.6875  L 16 16.291666666666664  C 16 16.15190972222222  15.953125 16.037109375  15.859375 15.947265625  C 15.765625 15.857421875  15.645833333333332 15.8125  15.5 15.8125  L 14 15.8125  L 14 8.145833333333332  C 14 8.00607638888889  13.953125 7.891276041666668  13.859375 7.801432291666668  C 13.765625 7.711588541666668  13.645833333333336 7.666666666666668  13.5 7.666666666666668  L 8.5 7.666666666666668  C 8.354166666666668 7.666666666666668  8.234375 7.711588541666668  8.140625 7.801432291666668  C 8.046875 7.891276041666668  8 8.00607638888889  8 8.145833333333332  L 8 10.541666666666668  C 8 10.68142361111111  8.046875 10.796223958333332  8.140625 10.886067708333332  C 8.234375 10.975911458333332  8.354166666666668 11.020833333333332  8.5 11.020833333333332  L 10 11.020833333333332  L 10 15.8125  L 8.5 15.8125  C 8.354166666666668 15.8125  8.234375 15.857421875  8.140625 15.947265625  C 8.046875 16.037109375  8 16.15190972222222  8 16.291666666666664  L 8 18.6875  C 8 18.827256944444443  8.046875 18.942057291666668  8.140625 19.031901041666668  C 8.234375 19.121744791666668  8.354166666666668 19.166666666666668  8.5 19.166666666666668  L 15.5 19.166666666666668  C 15.645833333333332 19.166666666666668  15.765625 19.121744791666668  15.859375 19.031901041666668  Z M 13.859375 5.615234375  C 13.953125 5.525390625  14 5.410590277777776  14 5.270833333333332  L 14 2.875  C 14 2.735243055555554  13.953125 2.6204427083333326  13.859375 2.5305989583333326  C 13.765625 2.4407552083333326  13.645833333333336 2.3958333333333326  13.5 2.3958333333333326  L 10.5 2.3958333333333326  C 10.354166666666668 2.3958333333333326  10.234375 2.4407552083333326  10.140625 2.5305989583333326  C 10.046875 2.6204427083333326  10 2.735243055555554  10 2.875  L 10 5.270833333333332  C 10 5.410590277777776  10.046875 5.525390625  10.140625 5.615234375  C 10.234375 5.705078125  10.354166666666668 5.75  10.5 5.75  L 13.5 5.75  C 13.645833333333336 5.75  13.765625 5.705078125  13.859375 5.615234375  Z M 22.390625 5.7275390625  C 23.463541666666664 7.489474826388887  24 9.41362847222222  24 11.5  C 24 13.586371527777779  23.463541666666664 15.510525173611109  22.390625 17.2724609375  C 21.317708333333336 19.03439670138889  19.861979166666668 20.42947048611111  18.0234375 21.457682291666668  C 16.184895833333336 22.485894097222225  14.177083333333334 23  12 23  C 9.822916666666668 23  7.815104166666667 22.485894097222225  5.9765625 21.457682291666668  C 4.138020833333334 20.42947048611111  2.682291666666667 19.03439670138889  1.609375 17.2724609375  C 0.5364583333333333 15.510525173611109  0 13.586371527777779  0 11.5  C 0 9.41362847222222  0.5364583333333333 7.489474826388887  1.609375 5.7275390625  C 2.682291666666667 3.9656032986111107  4.138020833333334 2.5705295138888866  5.9765625 1.5423177083333326  C 7.815104166666667 0.5141059027777758  9.822916666666668 0  12 0  C 14.177083333333334 0  16.184895833333336 0.5141059027777758  18.0234375 1.5423177083333326  C 19.861979166666668 2.5705295138888866  21.317708333333336 3.9656032986111107  22.390625 5.7275390625  Z " fill-rule="nonzero" fill="#ffffff" stroke="none" transform="matrix(1 0 0 1 36 243 )" />
  </g>
</svg>