<?xml version="1.0" encoding="utf-8"?>
<svg version="1.1" xmlns:xlink="http://www.w3.org/1999/xlink" width="21px" height="22px" xmlns="http://www.w3.org/2000/svg">
  <g transform="matrix(1 0 0 1 -851 -29 )">
    <path d="M 12.87890625 13.4921875  C 13.985276442307693 12.333133012820511  14.538461538461538 10.938301282051281  14.538461538461538 9.307692307692308  C 14.538461538461538 7.677083333333332  13.985276442307693 6.282251602564101  12.87890625 5.123197115384615  C 11.772536057692308 3.964142628205127  10.44110576923077 3.384615384615385  8.884615384615385 3.384615384615385  C 7.328125000000001 3.384615384615385  5.996694711538463 3.964142628205127  4.890324519230769 5.123197115384615  C 3.783954326923077 6.282251602564101  3.230769230769231 7.677083333333332  3.230769230769231 9.307692307692308  C 3.230769230769231 10.938301282051281  3.783954326923077 12.333133012820511  4.890324519230769 13.4921875  C 5.996694711538463 14.651241987179484  7.328125000000001 15.23076923076923  8.884615384615385 15.23076923076923  C 10.44110576923077 15.23076923076923  11.772536057692308 14.651241987179484  12.87890625 13.4921875  Z M 20.533052884615387 19.11778846153846  C 20.844350961538463 19.44391025641026  21 19.840544871794872  21 20.30769230769231  C 21 20.766025641025642  20.840144230769234 21.16266025641026  20.520432692307693 21.497596153846153  C 20.200721153846157 21.83253205128205  19.822115384615387 22  19.384615384615387 22  C 18.930288461538463 22  18.551682692307693 21.83253205128205  18.248798076923077 21.497596153846153  L 13.920072115384615 16.97596153846154  C 12.4140625 18.06891025641026  10.735576923076925 18.615384615384617  8.884615384615385 18.615384615384617  C 7.681490384615385 18.615384615384617  6.530949519230769 18.37079326923077  5.432992788461538 17.88161057692308  C 4.3350360576923075 17.392427884615383  3.3885216346153846 16.73137019230769  2.593449519230769 15.8984375  C 1.798377403846154 15.065504807692308  1.1673677884615388 14.07391826923077  0.700420673076923 12.923677884615385  C 0.2334735576923077 11.7734375  0 10.568108974358973  0 9.307692307692308  C 0 8.047275641025639  0.2334735576923077 6.841947115384615  0.700420673076923 5.69170673076923  C 1.1673677884615388 4.541466346153846  1.798377403846154 3.549879807692309  2.593449519230769 2.716947115384615  C 3.3885216346153846 1.884014423076924  4.3350360576923075 1.2229567307692304  5.432992788461538 0.7337740384615392  C 6.530949519230769 0.2445913461538456  7.681490384615385 0  8.884615384615385 0  C 10.087740384615385 0  11.23828125 0.2445913461538456  12.336237980769232 0.7337740384615392  C 13.434194711538462 1.2229567307692304  14.380709134615385 1.884014423076924  15.17578125 2.716947115384615  C 15.970853365384615 3.549879807692309  16.60186298076923 4.541466346153846  17.068810096153847 5.69170673076923  C 17.535757211538463 6.841947115384615  17.76923076923077 8.047275641025639  17.76923076923077 9.307692307692308  C 17.76923076923077 11.24679487179487  17.247596153846157 13.005208333333332  16.204326923076923 14.582932692307692  L 20.533052884615387 19.11778846153846  Z " fill-rule="nonzero" fill="#000000" stroke="none" transform="matrix(1 0 0 1 851 29 )" />
  </g>
</svg>