<?xml version="1.0" encoding="utf-8"?>
<svg version="1.1" xmlns:xlink="http://www.w3.org/1999/xlink" width="19px" height="20px" xmlns="http://www.w3.org/2000/svg">
  <g transform="matrix(1 0 0 1 -861 -295 )">
    <path d="M 11.65234375 12.265625  C 12.653345352564104 11.211939102564102  13.153846153846153 9.943910256410255  13.153846153846153 8.461538461538463  C 13.153846153846153 6.979166666666665  12.653345352564104 5.711137820512819  11.65234375 4.657451923076923  C 10.651342147435898 3.603766025641024  9.446714743589745 3.076923076923077  8.038461538461538 3.076923076923077  C 6.630208333333334 3.076923076923077  5.425580929487181 3.603766025641024  4.424579326923077 4.657451923076923  C 3.4235777243589745 5.711137820512819  2.9230769230769234 6.979166666666665  2.9230769230769234 8.461538461538463  C 2.9230769230769234 9.943910256410255  3.4235777243589745 11.211939102564102  4.424579326923077 12.265625  C 5.425580929487181 13.319310897435894  6.630208333333334 13.846153846153847  8.038461538461538 13.846153846153847  C 9.446714743589745 13.846153846153847  10.651342147435898 13.319310897435894  11.65234375 12.265625  Z M 18.57752403846154 17.379807692307693  C 18.85917467948718 17.67628205128205  19 18.036858974358974  19 18.461538461538463  C 19 18.87820512820513  18.85536858974359 19.23878205128205  18.56610576923077 19.54326923076923  C 18.27684294871795 19.84775641025641  17.934294871794872 20  17.53846153846154 20  C 17.127403846153847 20  16.78485576923077 19.84775641025641  16.510817307692307 19.54326923076923  L 12.59435096153846 15.432692307692308  C 11.231770833333334 16.42628205128205  9.713141025641027 16.923076923076923  8.038461538461538 16.923076923076923  C 6.949919871794872 16.923076923076923  5.908954326923077 16.700721153846153  4.915564903846153 16.256009615384617  C 3.922175480769231 15.811298076923077  3.0658052884615383 15.210336538461537  2.346454326923077 14.453125  C 1.6271033653846154 13.695913461538463  1.056189903846154 12.794471153846153  0.6337139423076923 11.748798076923077  C 0.21123798076923078 10.703125  0 9.607371794871792  0 8.461538461538463  C 0 7.315705128205126  0.21123798076923078 6.219951923076923  0.6337139423076923 5.174278846153846  C 1.056189903846154 4.128605769230768  1.6271033653846154 3.2271634615384626  2.346454326923077 2.469951923076923  C 3.0658052884615383 1.7127403846153855  3.922175480769231 1.1117788461538458  4.915564903846153 0.6670673076923084  C 5.908954326923077 0.22235576923076872  6.949919871794872 0  8.038461538461538 0  C 9.127003205128206 0  10.16796875 0.22235576923076872  11.161358173076923 0.6670673076923084  C 12.154747596153847 1.1117788461538458  13.01111778846154 1.7127403846153855  13.73046875 2.469951923076923  C 14.44981971153846 3.2271634615384626  15.020733173076923 4.128605769230768  15.443209134615383 5.174278846153846  C 15.865685096153847 6.219951923076923  16.076923076923077 7.315705128205126  16.076923076923077 8.461538461538463  C 16.076923076923077 10.224358974358974  15.60496794871795 11.822916666666664  14.661057692307693 13.257211538461537  L 18.57752403846154 17.379807692307693  Z " fill-rule="nonzero" fill="#000000" stroke="none" transform="matrix(1 0 0 1 861 295 )" />
  </g>
</svg>